<?xml version="1.0" encoding="UTF-8" standalone="no"?>
<svg
   width="376.70383"
   height="117.32793"
   viewBox="0 0 376.70383 117.32793"
   fill="none"
   version="1.1"
   id="svg12"
   xmlns="http://www.w3.org/2000/svg"
   xmlns:svg="http://www.w3.org/2000/svg">
  <defs
     id="defs16" />
  <path
     d="m 176.99382,71.579726 c -0.519,0 -0.9,-0.121 -1.141,-0.362 -0.241,-0.241 -0.362,-0.612 -0.362,-1.113 v -31.673 c 0,-0.519 0.121,-0.891 0.362,-1.113 0.241,-0.241 0.622,-0.362 1.141,-0.362 h 9.992 c 4.638,0 8.349,1.373 11.133,4.119 2.783,2.746 4.174,7.134 4.174,13.165 0,6.067 -1.391,10.474 -4.174,13.22 -2.784,2.746 -6.495,4.119 -11.133,4.119 z m 9.658,-3.757 c 3.34,0 6.03,-1.086 8.071,-3.257 2.041,-2.189 3.062,-5.631 3.062,-10.325 0,-3.155 -0.483,-5.734 -1.448,-7.738 -0.965,-2.022 -2.282,-3.488 -3.952,-4.397 -1.67,-0.928 -3.581,-1.392 -5.733,-1.392 h -6.791 v 27.109 z m 35.595,4.035 c -4.101,0 -7.153,-1.067 -9.157,-3.2 -1.985,-2.153 -2.978,-5.437 -2.978,-9.853 0,-4.379 0.974,-7.7 2.922,-9.964 1.949,-2.282 4.815,-3.423 8.6,-3.423 3.377,0 5.919,1.095 7.626,3.284 1.726,2.19 2.589,5.399 2.589,9.63 0,0.186 -0.102,0.445 -0.306,0.779 -0.186,0.316 -0.418,0.603 -0.696,0.863 -0.26,0.241 -0.483,0.362 -0.668,0.362 h -15.614 c 0.204,2.765 0.909,4.787 2.115,6.067 1.225,1.262 3.062,1.893 5.511,1.893 1.373,0 2.551,-0.167 3.535,-0.501 1.002,-0.334 1.966,-0.742 2.894,-1.225 0.093,-0.037 0.232,-0.102 0.418,-0.195 0.185,-0.092 0.315,-0.139 0.389,-0.139 0.204,0 0.436,0.167 0.696,0.501 0.278,0.316 0.51,0.677 0.696,1.086 0.204,0.389 0.306,0.677 0.306,0.862 0,0.409 -0.408,0.863 -1.224,1.364 -0.817,0.501 -1.912,0.928 -3.285,1.281 -1.354,0.352 -2.811,0.528 -4.369,0.528 z m 5.176,-15.085 c 0,-5.195 -1.976,-7.793 -5.928,-7.793 -4.249,0 -6.559,2.598 -6.93,7.793 z m 15.222,25.105 c -1.336,0 -2.004,-0.362 -2.004,-1.086 v -27.581 c 0,-2.152 -0.102,-3.702 -0.306,-4.648 -0.204,-0.965 -0.306,-1.494 -0.306,-1.587 0,-0.408 0.306,-0.695 0.919,-0.862 0.63,-0.186 1.224,-0.279 1.781,-0.279 0.464,0 0.807,0.251 1.03,0.752 0.222,0.501 0.38,1.011 0.473,1.531 0.111,0.519 0.185,0.853 0.222,1.002 2.357,-2.468 4.982,-3.702 7.877,-3.702 1.985,0 3.702,0.566 5.149,1.698 1.447,1.131 2.551,2.699 3.312,4.703 0.761,2.004 1.141,4.286 1.141,6.847 0,2.783 -0.427,5.167 -1.28,7.153 -0.835,1.985 -2.014,3.488 -3.535,4.509 -1.521,1.02 -3.275,1.53 -5.26,1.53 -1.429,0 -2.7,-0.213 -3.813,-0.64 -1.095,-0.427 -2.18,-1.048 -3.257,-1.865 v 11.439 c 0,0.724 -0.649,1.086 -1.948,1.086 z m 8.266,-13.666 c 2.208,-0.055 3.869,-0.862 4.982,-2.421 1.114,-1.559 1.67,-3.822 1.67,-6.791 0,-3.191 -0.528,-5.65 -1.586,-7.376 -1.039,-1.744 -2.542,-2.616 -4.509,-2.616 -1.095,0 -2.236,0.297 -3.423,0.891 -1.169,0.594 -2.255,1.438 -3.257,2.533 v 13.554 c 1.819,1.484 3.86,2.226 6.123,2.226 z m 30.335,3.646 c -3.729,0 -6.577,-1.113 -8.544,-3.34 -1.949,-2.245 -2.923,-5.501 -2.923,-9.769 0,-4.267 0.993,-7.551 2.978,-9.852 1.986,-2.319 4.815,-3.479 8.489,-3.479 3.637,0 6.42,1.15 8.35,3.451 1.929,2.282 2.894,5.576 2.894,9.88 0,4.287 -0.955,7.543 -2.866,9.769 -1.893,2.227 -4.685,3.34 -8.378,3.34 z m -0.139,-3.562 c 2.412,0 4.193,-0.779 5.344,-2.338 1.15,-1.577 1.725,-4.008 1.725,-7.292 0,-3.303 -0.575,-5.743 -1.725,-7.32 -1.151,-1.577 -2.932,-2.366 -5.344,-2.366 -2.394,0 -4.156,0.789 -5.288,2.366 -1.132,1.559 -1.698,3.999 -1.698,7.32 0,3.303 0.557,5.733 1.67,7.292 1.132,1.559 2.904,2.338 5.316,2.338 z m 28.08,3.562 c -1.651,0 -3.126,-0.501 -4.425,-1.503 -1.299,-1.002 -1.948,-2.774 -1.948,-5.316 v -15.78 h -2.477 c -0.353,0 -0.613,-0.112 -0.78,-0.334 -0.148,-0.241 -0.222,-0.622 -0.222,-1.141 v -0.613 c 0,-0.519 0.074,-0.89 0.222,-1.113 0.167,-0.241 0.427,-0.362 0.78,-0.362 h 2.477 l 0.584,-5.177 c 0.037,-0.723 0.566,-1.085 1.587,-1.085 h 0.473 c 0.519,0 0.9,0.093 1.141,0.278 0.241,0.167 0.362,0.436 0.362,0.807 v 5.177 h 4.147 c 0.352,0 0.603,0.121 0.751,0.362 0.167,0.223 0.251,0.594 0.251,1.113 v 0.613 c 0,0.519 -0.084,0.9 -0.251,1.141 -0.148,0.222 -0.399,0.334 -0.751,0.334 h -4.147 v 15.391 c 0,1.354 0.232,2.301 0.696,2.839 0.482,0.538 1.131,0.807 1.948,0.807 0.631,0 1.113,-0.037 1.447,-0.112 0.353,-0.074 0.585,-0.111 0.696,-0.111 0.297,0 0.538,0.297 0.723,0.891 0.205,0.594 0.307,1.067 0.307,1.419 0,0.984 -1.197,1.475 -3.591,1.475 z m 13.858,-32.396 c -1.317,0 -1.976,-0.362 -1.976,-1.086 v -2.922 c 0,-0.724 0.659,-1.085 1.976,-1.085 h 0.585 c 1.336,0 2.004,0.361 2.004,1.085 v 2.922 c 0,0.724 -0.668,1.086 -2.004,1.086 z m 0.195,32.201 c -1.317,0 -1.976,-0.361 -1.976,-1.085 v -23.88 c 0,-0.723 0.659,-1.085 1.976,-1.085 h 0.195 c 1.336,0 2.004,0.362 2.004,1.085 v 23.88 c 0,0.724 -0.668,1.085 -2.004,1.085 z m 16.252,0 c -0.687,0 -1.188,-0.083 -1.503,-0.25 -0.315,-0.186 -0.473,-0.464 -0.473,-0.835 v -21.319 h -1.976 c -0.668,0 -1.002,-0.492 -1.002,-1.475 v -0.613 c 0,-0.983 0.334,-1.475 1.002,-1.475 h 1.976 v -4.703 c 0,-2.598 0.64,-4.379 1.92,-5.344 1.299,-0.984 2.783,-1.475 4.453,-1.475 2.412,0 3.619,0.501 3.619,1.503 0,0.167 -0.047,0.445 -0.14,0.835 -0.074,0.371 -0.194,0.705 -0.361,1.002 -0.149,0.296 -0.325,0.445 -0.529,0.445 -0.112,0 -0.344,-0.037 -0.696,-0.111 -0.353,-0.075 -0.835,-0.112 -1.447,-0.112 -0.557,0 -1.03,0.084 -1.42,0.251 -0.371,0.167 -0.677,0.519 -0.918,1.057 -0.223,0.538 -0.334,1.318 -0.334,2.338 v 4.314 h 4.314 c 0.352,0 0.603,0.121 0.751,0.362 0.167,0.223 0.251,0.594 0.251,1.113 v 0.613 c 0,0.519 -0.084,0.9 -0.251,1.141 -0.148,0.222 -0.399,0.334 -0.751,0.334 h -4.314 v 21.319 c 0,0.371 -0.158,0.649 -0.473,0.835 -0.316,0.167 -0.807,0.25 -1.475,0.25 z m 17.977,10.215 c -1.076,0 -1.614,-0.269 -1.614,-0.807 0,-0.13 0.074,-0.399 0.223,-0.807 l 4.147,-10.076 -8.656,-23.1 c -0.019,-0.074 -0.047,-0.176 -0.084,-0.306 -0.037,-0.149 -0.055,-0.26 -0.055,-0.334 0,-0.26 0.176,-0.464 0.528,-0.613 0.353,-0.148 0.891,-0.222 1.615,-0.222 h 0.389 c 1.114,0 1.772,0.259 1.976,0.779 l 5.038,13.415 c 0.445,1.169 0.974,2.83 1.586,4.982 h 0.084 l 0.584,-1.837 c 0.093,-0.278 0.251,-0.751 0.474,-1.419 0.222,-0.687 0.426,-1.262 0.612,-1.726 l 4.926,-13.415 c 0.167,-0.52 0.844,-0.779 2.032,-0.779 h 0.167 c 1.299,0 1.948,0.278 1.948,0.835 0,0.13 -0.046,0.352 -0.139,0.668 l -12.691,33.732 c -0.297,0.687 -1.077,1.03 -2.338,1.03 z"
     fill="#303030"
     id="path4" />
  <path
     d="m 134.95782,2.6355657e-5 c 0.69,-0.0048999957 1.177,0.674300004343 0.952,1.326600044343 L 96.045822,116.65373 c -0.351,1.016 -1.838,0.839 -1.94,-0.231 l -7.662,-79.978004 c -0.034,-0.358 -0.258,-0.67 -0.586,-0.817 l -73.322,-32.8508996 c -0.98,-0.4394 -0.672,-1.90500004 0.402,-1.91260004 z"
     fill="#d18c8c"
     id="path6" />
  <path
     d="m 53.874822,57.708726 c 0.672,0.01 1.143,0.667 0.938,1.306 l -16.174,50.330004 c -0.296,0.92 -1.597,0.927 -1.902,0.009 l -10.18,-30.681004 c -0.064,-0.193 -0.185,-0.361 -0.347,-0.484 l -25.80999951,-19.462 c -0.772,-0.583 -0.35,-1.813 0.61700001,-1.799 z"
     fill="#d9afaf"
     id="path8" />
  <line
     x1="170.70383"
     y1="91.579727"
     x2="376.70383"
     y2="91.579727"
     stroke="#dbdbdb"
     stroke-width="2"
     id="line10" />
</svg>
